<?xml version="1.0" encoding="utf-8"?>
<!-- Generator: Adobe Illustrator 25.1.0, SVG Export Plug-In . SVG Version: 6.00 Build 0)  -->
<svg version="1.1" id="Layer_1" xmlns="http://www.w3.org/2000/svg" xmlns:xlink="http://www.w3.org/1999/xlink" x="0px" y="0px"
	 viewBox="0 0 595.28 841.89" style="enable-background:new 0 0 595.28 841.89;" xml:space="preserve">
<style type="text/css">
	.st0{fill:#FFFFFF;}
</style>
<g>
	<path class="st0" d="M298.52,697.37c-44.66,0-89.33,0.01-133.99-0.01c-12.25,0-24.29-1.48-35.72-6.09
		c-25.17-10.14-40.25-28.64-45.3-55.3c-2.11-11.15-1.63-22.41-1.33-33.65c0.53-19.69,2.77-39.19,6.79-58.48
		c4.52-21.66,11.44-42.37,23.48-61.16c12.44-19.39,29.3-32.73,51.83-38.44c7.7-1.95,15.54-2.89,23.49-2.87
		c2.27,0.01,4.2,0.95,6.1,1.99c9.2,5.08,17.75,11.18,26.49,16.96c19.18,12.69,40.34,20.04,63.01,22.88
		c20.22,2.53,39.96-0.19,59.34-6.51c15.78-5.15,29.91-13.23,43.47-22.57c5.61-3.87,11.27-7.71,17.32-10.91
		c2.24-1.19,4.53-1.9,7.14-1.84c33.7,0.8,58.93,15.92,76.17,44.77c10.15,16.99,16.44,35.39,20.67,54.61
		c6.04,27.49,8.52,55.33,7.4,83.4c-0.96,24.07-10.3,44.2-30.38,58.53c-10.88,7.76-23.15,11.91-36.29,13.7
		c-5.79,0.79-11.61,1.03-17.45,1.02C386.68,697.36,342.6,697.37,298.52,697.37z"/>
	<path class="st0" d="M416.67,343.02c1.18,64.38-54.3,118.41-118.44,118.26c-63.81-0.15-118.2-54.22-118.07-118.65
		c0.13-64.37,54.73-118.24,118.58-118.15C362.22,224.57,417.95,278.22,416.67,343.02z"/>
	<path class="st0" d="M77.63,460.98c-7.54-0.26-16.63,0.49-25.68-0.57c-11.45-1.34-22.03-5.01-31.44-11.77
		c-11.4-8.18-16.96-19.62-17.17-33.36c-0.4-26.02,0.57-51.97,7.15-77.36c1.97-7.6,4.68-14.93,9.09-21.51
		c4.59-6.85,10.51-11.74,19.06-12.76c1.98-0.24,3.77,0,5.57,0.84c7.54,3.53,14.57,8.04,22.24,11.3
		c12.88,5.47,25.83,10.68,39.81,12.71c17.46,2.54,34.53,0.71,51.31-4.41c4.71-1.44,4.6-1.54,4.07,3.35
		c-3.14,28.82,2.03,56.02,16.09,81.44c2.05,3.71,4.34,7.3,6.67,10.84c1.18,1.8,0.7,2.09-1.19,2.16c-13.1,0.44-25.74,3.12-37.85,8.16
		c-15.44,6.42-28.4,16.25-39.29,28.86c-1.32,1.52-2.61,2.18-4.65,2.15C94,460.9,86.58,460.98,77.63,460.98z"/>
	<path class="st0" d="M517.82,460.98c-7.25,0-14.5-0.07-21.75,0.04c-2.16,0.03-3.65-0.55-5.11-2.24
		c-12.11-14-26.71-24.47-44.21-30.71c-10.5-3.74-21.34-5.79-32.48-6.24c-0.77-0.03-1.9,0.41-2.21-0.53
		c-0.16-0.48,0.54-1.31,0.95-1.92c13.02-19.48,20.78-40.84,22.89-64.2c0.89-9.91,0.64-19.8-0.69-29.67c-0.4-2.97-0.4-3.02,2.54-2.04
		c14.71,4.88,29.8,6.93,45.27,5.9c11.73-0.78,22.9-3.88,33.88-7.97c11.34-4.22,22.28-9.28,32.7-15.38
		c6.61-3.87,12.62-2.54,18.55,0.99c5.94,3.53,9.68,9.05,12.66,15.11c5.28,10.73,7.82,22.26,9.59,33.97
		c2.88,19.07,3.74,38.3,3.49,57.56c-0.19,14.46-5.45,26.61-17.59,35.2c-6.81,4.82-14.31,8.1-22.42,10.02
		c-6.1,1.45-12.3,2.12-18.57,2.1C529.48,460.97,523.65,460.98,517.82,460.98z"/>
	<path class="st0" d="M121.23,303.45c-42.08,0.91-78.85-35.25-78.83-78.76c0.01-42.64,35.68-78.99,79.15-78.88
		c43.69,0.11,78.79,37.08,78.71,79.08C200.17,267.56,163.96,304.44,121.23,303.45z"/>
	<path class="st0" d="M475.76,303.45c-42.3,0.93-78.88-35.44-78.9-78.69c-0.02-42.51,35.54-79.03,79.08-78.95
		c43.64,0.08,78.83,36.91,78.78,79.01C554.67,267.66,518.35,304.41,475.76,303.45z"/>
</g>
</svg>
